<?xml version="1.0" standalone="no"?>
<!DOCTYPE svg PUBLIC "-//W3C//DTD SVG 20010904//EN"
 "http://www.w3.org/TR/2001/REC-SVG-20010904/DTD/svg10.dtd">
<svg version="1.0" xmlns="http://www.w3.org/2000/svg"
 width="400.000000pt" height="400.000000pt" viewBox="0 0 400.000000 400.000000"
 preserveAspectRatio="xMidYMid meet">
<metadata>
Created by potrace 1.14, written by Peter Selinger 2001-2017
</metadata>
<g transform="translate(0.000000,400.000000) scale(0.100000,-0.100000)"
fill="#000000" stroke="none">
<path d="M2514 3714 c3 -8 -2 -11 -14 -9 -11 2 -23 -1 -26 -7 -5 -7 -2 -8 6
-3 9 6 11 4 6 -4 -5 -7 -14 -10 -22 -7 -8 3 -14 1 -14 -4 0 -6 5 -10 10 -10 6
0 10 -5 10 -11 0 -5 -3 -8 -7 -6 -5 3 -14 -1 -21 -9 -12 -13 -8 -18 13 -15 6
1 2 -5 -9 -13 -10 -8 -15 -20 -11 -26 4 -6 1 -9 -7 -8 -7 2 -12 -3 -10 -9 1
-7 -3 -13 -8 -13 -7 0 -7 -6 -1 -18 7 -14 6 -19 -4 -19 -8 0 -11 5 -8 10 3 6
1 7 -6 3 -9 -6 -9 -11 1 -24 10 -12 10 -14 1 -8 -8 4 -13 2 -13 -4 0 -6 -4 -8
-10 -5 -6 4 -7 -1 -3 -11 5 -13 3 -15 -8 -9 -12 7 -12 6 -1 -7 10 -13 10 -18
1 -24 -8 -5 -9 -3 -4 6 5 9 4 11 -4 6 -7 -5 -9 -16 -5 -28 4 -13 2 -18 -4 -14
-6 3 -21 -4 -34 -16 -13 -13 -15 -16 -5 -8 19 14 19 14 6 -7 -8 -13 -19 -23
-26 -23 -7 0 -15 -11 -19 -25 -3 -14 -13 -25 -23 -25 -12 0 -13 -2 -3 -9 11
-7 11 -9 -2 -14 -8 -3 -20 -16 -26 -29 -11 -23 -11 -23 8 1 14 18 21 21 27 11
5 -8 4 -11 -2 -7 -11 7 -28 -20 -24 -36 1 -4 -9 -3 -21 4 -13 6 -20 8 -16 4
12 -12 -12 -47 -28 -41 -9 3 -14 -1 -14 -12 0 -14 -2 -15 -9 -2 -6 8 -7 18 -4
24 3 5 1 6 -6 2 -6 -4 -9 -11 -6 -15 2 -5 -4 -16 -15 -26 -11 -10 -20 -15 -20
-12 0 4 -11 2 -25 -3 -21 -8 -25 -7 -25 8 0 14 -2 15 -9 2 -6 -8 -7 -18 -4
-24 4 -5 1 -6 -8 0 -21 13 -39 14 -39 2 0 -6 -7 -4 -17 3 -15 13 -15 12 -3
-11 12 -23 12 -24 -4 -10 -25 20 -46 22 -39 3 5 -13 2 -12 -21 2 -25 17 -26
17 -20 -1 6 -16 5 -17 -7 -6 -15 14 -33 16 -24 3 3 -5 0 -13 -6 -17 -7 -4 -9
-3 -5 4 3 6 2 13 -4 17 -5 3 -10 2 -10 -3 0 -5 -7 -9 -15 -9 -10 0 -14 6 -10
15 4 12 3 13 -10 2 -8 -7 -12 -17 -9 -24 3 -6 -1 -3 -9 7 -11 13 -16 15 -20 5
-3 -11 -8 -11 -26 0 -18 10 -21 10 -21 -3 0 -8 -4 -15 -10 -15 -5 0 -10 4 -10
9 0 5 -7 12 -16 15 -13 5 -14 4 -6 -7 9 -10 8 -14 -3 -14 -8 0 -15 4 -15 9 0
4 -5 8 -11 8 -5 0 -8 -4 -5 -8 2 -4 -12 -6 -32 -4 -28 2 -33 1 -22 -7 12 -9
11 -11 -8 -11 -14 0 -21 4 -17 11 4 5 -8 4 -27 -4 -19 -8 -43 -10 -58 -6 -14
4 -19 7 -11 8 8 1 12 4 9 7 -4 3 -19 -3 -35 -13 -20 -13 -25 -14 -16 -2 10 12
8 15 -7 15 -10 0 -16 -4 -14 -8 3 -4 -2 -5 -10 -2 -9 3 -16 10 -16 16 0 5 -5
6 -12 2 -8 -5 -9 -2 -5 10 6 14 3 17 -8 12 -9 -3 -13 -2 -10 4 3 6 -1 10 -9
10 -9 0 -15 3 -15 8 3 19 -2 33 -11 27 -5 -3 -10 -1 -10 5 0 6 -5 8 -11 5 -6
-4 -9 0 -7 11 2 14 -3 19 -20 18 -17 -1 -20 2 -12 12 9 10 6 11 -12 7 -18 -4
-20 -3 -8 6 11 8 12 11 2 11 -7 0 -11 4 -7 9 3 5 0 13 -6 17 -8 4 -9 3 -5 -4
4 -7 2 -12 -3 -12 -6 0 -11 10 -12 23 0 21 -1 21 -9 2 -5 -11 -9 -14 -9 -7 -1
8 -6 10 -13 6 -10 -6 -10 -5 -2 7 9 11 9 17 -1 26 -7 6 -16 9 -21 5 -4 -4 -5
0 -1 10 7 21 -3 31 -19 17 -9 -8 -11 -5 -7 10 3 13 1 21 -6 21 -7 0 -9 -5 -5
-12 4 -7 3 -8 -5 -4 -9 6 -9 11 -1 21 13 15 -4 16 -30 1 -12 -7 -13 -6 -3 5
15 16 17 33 3 24 -5 -3 -10 2 -10 12 0 15 -2 16 -11 3 -9 -12 -10 -11 -6 7 4
19 2 21 -13 13 -15 -8 -17 -5 -15 20 1 16 -1 27 -6 24 -5 -3 -7 -10 -4 -15 3
-5 -1 -6 -10 -3 -9 4 -13 9 -10 12 3 3 -7 12 -22 19 -16 7 -19 11 -8 8 20 -5
20 -5 1 10 -11 8 -24 15 -29 15 -4 0 -5 5 -1 12 4 7 3 8 -5 4 -6 -4 -20 -2
-29 6 -15 11 -15 11 -5 -3 11 -14 8 -16 -32 -14 -25 1 -49 6 -53 10 -4 5 -2 5
4 2 6 -3 11 1 11 9 0 10 -7 8 -25 -8 -14 -13 -22 -17 -17 -9 5 9 3 12 -6 9 -8
-3 -13 -11 -11 -17 2 -10 -11 -15 -31 -12 -5 1 -6 -3 -2 -9 3 -6 11 -7 17 -4
7 5 8 2 4 -5 -5 -7 -14 -10 -21 -7 -7 2 -16 -2 -19 -10 -4 -10 -2 -13 7 -8 8
5 8 2 -2 -9 -7 -9 -18 -14 -25 -10 -6 4 -4 -2 4 -12 9 -11 10 -16 3 -11 -9 5
-13 1 -13 -12 0 -11 -7 -25 -15 -32 -8 -7 -15 -18 -15 -24 0 -6 7 -2 15 8 8
11 15 16 15 10 -1 -12 -30 -51 -30 -39 0 5 -6 0 -14 -11 -9 -12 -11 -23 -5
-30 7 -8 5 -14 -3 -16 -11 -4 -11 -8 0 -20 10 -12 10 -18 1 -23 -8 -6 -7 -10
2 -16 10 -6 11 -9 2 -9 -13 0 -13 -26 0 -47 5 -7 4 -13 -2 -13 -6 0 -7 -7 -4
-17 4 -11 3 -14 -5 -9 -8 5 -10 2 -6 -9 4 -8 0 -23 -7 -32 -10 -12 -10 -15 -1
-9 15 9 15 1 2 -24 -7 -13 -6 -19 4 -23 10 -4 12 -16 6 -46 -6 -33 -4 -43 9
-51 14 -8 14 -9 -3 -10 -14 0 -16 -3 -7 -13 6 -8 8 -17 4 -20 -3 -4 0 -7 8 -7
11 0 11 -2 -1 -10 -12 -8 -12 -10 -1 -10 10 0 11 -3 2 -14 -8 -10 -8 -16 3
-25 15 -13 29 -54 15 -45 -5 3 -9 0 -9 -5 0 -6 5 -11 10 -11 6 0 10 -6 9 -12
-3 -24 1 -39 9 -34 4 2 9 -5 9 -17 2 -17 0 -19 -7 -7 -6 9 -10 10 -10 3 0 -6
5 -15 11 -19 8 -4 7 -9 -2 -15 -8 -5 -9 -9 -4 -9 6 0 10 -11 10 -24 0 -13 -3
-22 -8 -19 -4 2 -7 -1 -7 -6 0 -6 6 -11 13 -11 8 0 7 -4 -3 -10 -13 -9 -13
-10 0 -10 9 0 11 -3 5 -8 -12 -9 -16 -54 -4 -46 16 10 9 -9 -8 -23 -10 -8 -12
-12 -5 -8 6 3 12 1 12 -5 0 -6 5 -8 10 -5 6 3 10 2 10 -4 0 -5 -5 -11 -11 -13
-7 -2 -7 -12 0 -31 7 -18 7 -27 1 -27 -6 0 -3 -12 7 -27 17 -26 17 -27 0 -14
-21 17 -22 8 -1 -14 10 -9 17 -35 18 -64 0 -27 4 -47 8 -45 4 2 9 0 12 -4 3
-5 -6 -14 -19 -20 -17 -8 -25 -8 -25 -1 0 6 -6 4 -14 -4 -12 -12 -14 -34 -6
-57 1 -3 3 -12 4 -20 0 -8 10 -15 21 -14 14 0 20 -6 20 -22 0 -12 -4 -20 -9
-16 -5 3 -6 -3 -2 -14 7 -18 6 -18 -12 1 -10 11 -17 25 -15 30 4 12 -71 11
-101 -1 -10 -4 -31 -7 -46 -8 -26 -1 -28 -3 -25 -41 3 -38 5 -40 37 -38 36 1
90 9 125 17 23 5 24 -5 6 -39 -6 -11 -9 -31 -7 -45 3 -19 2 -21 -6 -10 -8 13
-11 13 -22 1 -7 -8 -8 -11 -3 -8 16 8 38 -30 23 -39 -7 -4 -8 -3 -4 4 4 7 3
12 -2 12 -6 0 -13 -7 -16 -16 -3 -8 -2 -13 3 -10 5 3 14 -1 21 -9 11 -13 10
-14 -6 -9 -10 4 -16 4 -12 -1 4 -4 3 -13 -2 -20 -7 -8 -5 -12 5 -12 8 0 11 5
8 10 -3 6 -1 7 5 3 15 -9 3 -38 -12 -29 -6 3 -2 -4 9 -17 l20 -23 -25 13 c-22
12 -24 12 -12 -2 10 -13 10 -17 0 -20 -8 -3 -6 -7 6 -11 11 -5 15 -3 10 5 -5
7 -3 8 5 4 9 -6 8 -13 -6 -29 -10 -11 -12 -17 -4 -12 11 6 13 3 8 -14 -3 -15
-1 -21 8 -19 8 2 13 -1 12 -7 -1 -5 -4 -9 -7 -8 -3 1 -6 -7 -6 -17 0 -10 5
-16 11 -13 7 2 12 -3 12 -11 0 -8 -4 -13 -9 -10 -4 3 -8 0 -8 -5 0 -6 6 -11
13 -11 8 0 7 -4 -3 -10 -12 -8 -12 -10 -1 -10 8 0 11 -7 8 -20 -3 -11 -1 -20
3 -20 4 0 6 -10 2 -22 -4 -16 -2 -19 9 -13 12 7 12 6 1 -7 -11 -14 -10 -17 8
-23 l20 -6 -21 -18 c-17 -14 -19 -18 -6 -18 9 0 13 5 10 10 -3 6 -1 7 5 3 8
-5 8 -15 2 -32 -8 -19 -6 -26 6 -31 13 -5 13 -7 2 -14 -10 -7 -8 -9 7 -10 17
-1 16 -2 -5 -9 -17 -5 -19 -8 -7 -9 9 -1 17 -6 17 -12 0 -5 5 -7 12 -3 7 4 8
3 4 -5 -4 -6 -12 -9 -17 -6 -5 4 -9 1 -9 -4 0 -6 5 -11 10 -11 6 0 10 -7 10
-15 0 -8 8 -24 17 -34 19 -23 27 -55 11 -45 -6 4 -9 1 -6 -7 3 -8 10 -14 15
-14 6 0 15 -4 20 -9 5 -5 3 -6 -4 -2 -7 4 -13 2 -13 -3 0 -6 6 -11 13 -11 8 0
7 -4 -3 -10 -12 -8 -12 -10 5 -10 17 0 17 -2 5 -10 -12 -8 -12 -10 5 -10 17 0
17 -2 5 -10 -10 -6 -11 -10 -2 -10 6 0 12 -7 12 -16 0 -8 4 -12 10 -9 6 4 7
-1 3 -11 -4 -12 -3 -15 5 -10 8 5 10 2 6 -8 -4 -10 -1 -16 7 -16 7 0 9 -3 6
-7 -4 -3 -2 -12 5 -20 9 -11 7 -12 -8 -7 -16 5 -15 2 5 -15 13 -12 18 -21 10
-21 -8 0 -5 -6 7 -16 10 -8 13 -13 7 -9 -7 3 -13 1 -13 -4 0 -6 8 -11 18 -12
14 0 14 -2 -3 -9 -19 -8 -19 -9 -1 -9 14 -1 17 -7 14 -30 -3 -20 0 -27 8 -24
7 2 15 -1 20 -8 5 -8 3 -10 -7 -5 -8 4 -6 1 4 -7 14 -11 15 -16 5 -20 -9 -4
-8 -6 3 -6 9 -1 20 -8 23 -17 6 -15 4 -15 -11 -3 -17 13 -17 13 0 -7 9 -11 14
-25 10 -29 -5 -5 1 -3 11 5 13 10 17 10 12 2 -4 -7 -2 -12 6 -13 7 0 4 -4 -7
-9 -17 -7 -16 -9 10 -10 26 -1 27 -3 10 -10 -18 -8 -19 -9 -1 -9 12 -1 16 -6
12 -17 -3 -8 -2 -13 2 -11 4 2 17 -6 30 -19 12 -13 19 -24 15 -24 -4 0 0 -5
10 -11 9 -5 21 -8 26 -5 5 3 15 -2 22 -11 8 -9 9 -14 2 -10 -6 4 -13 4 -16 0
-2 -5 -2 -1 0 7 3 11 1 12 -8 3 -15 -15 -3 -32 20 -26 12 3 20 -2 24 -16 3
-13 13 -21 27 -21 11 0 18 -5 15 -10 -3 -6 3 -10 15 -10 12 0 19 -4 16 -9 -3
-5 1 -12 10 -15 8 -3 12 -11 8 -17 -4 -8 -3 -9 5 -5 9 6 9 11 -1 23 -12 15
-11 15 9 3 12 -8 20 -17 17 -21 -2 -4 0 -10 6 -14 5 -3 10 0 10 7 1 7 8 2 16
-12 8 -14 13 -17 10 -7 -5 15 -3 16 15 7 11 -6 23 -18 26 -26 4 -12 8 -12 21
-2 13 11 15 10 9 -4 -7 -19 8 -34 18 -18 4 6 11 5 19 -3 8 -6 11 -16 8 -21 -3
-5 0 -6 6 -2 6 4 9 14 6 24 -4 13 -2 12 8 -3 7 -11 26 -21 42 -22 16 -1 34 -8
40 -14 8 -9 8 -10 -1 -5 -9 5 -11 2 -6 -9 3 -9 9 -12 12 -7 3 5 14 9 23 9 15
0 15 -3 5 -15 -10 -13 -9 -14 9 -4 16 9 26 8 40 -2 12 -10 26 -11 41 -5 14 5
23 5 23 -1 0 -5 7 -7 15 -4 8 4 17 -1 21 -10 3 -9 10 -13 15 -10 5 3 9 0 9 -7
0 -9 3 -9 14 0 11 9 18 8 30 -4 14 -15 16 -15 16 -1 0 9 5 16 11 16 5 0 7 -4
4 -10 -11 -18 6 -32 23 -18 13 11 14 11 7 -1 -6 -11 -4 -13 8 -8 10 3 17 2 17
-3 0 -6 5 -10 11 -10 5 0 7 5 4 10 -3 6 -1 10 4 10 10 0 15 -14 12 -33 -1 -5
3 -6 9 -2 5 3 10 13 10 21 0 8 4 14 9 14 5 0 7 -10 5 -22 -2 -13 -2 -17 2 -10
3 6 10 12 15 12 6 0 8 -4 5 -8 -3 -5 1 -9 9 -9 8 0 12 4 9 8 -2 4 0 11 6 14 6
4 10 3 9 -2 -3 -20 2 -27 11 -13 9 13 10 13 10 0 0 -13 1 -13 10 0 6 10 10 11
10 3 0 -19 30 -16 54 4 18 16 19 16 8 1 -12 -15 -11 -17 10 -16 13 1 29 6 37
12 12 9 13 8 6 -3 -6 -11 -4 -13 9 -8 14 6 17 3 12 -8 -3 -9 -2 -13 4 -10 6 3
10 14 10 23 1 15 2 15 15 -2 13 -17 17 -18 32 -5 20 17 31 18 51 6 6 -5 12 -5
12 0 0 4 5 1 10 -7 9 -13 10 -13 10 0 0 9 10 16 25 16 14 1 23 -1 21 -5 -6
-10 42 -6 51 4 5 4 2 5 -4 1 -9 -5 -11 -2 -7 8 3 9 11 16 17 16 6 0 7 -3 4 -7
-4 -3 -2 -12 4 -19 11 -14 39 -8 39 8 0 6 -8 4 -17 -3 -16 -13 -17 -12 -4 4 9
11 17 14 25 8 7 -6 17 -6 26 -1 21 13 33 12 24 -2 -5 -7 -3 -8 5 -3 7 4 28 8
46 9 19 2 40 7 47 13 22 17 47 23 54 12 4 -6 11 -6 20 2 7 6 11 16 7 22 -4 6
-1 7 6 3 7 -5 10 -15 7 -23 -3 -8 -1 -11 4 -8 6 3 10 13 10 21 0 8 5 12 10 9
6 -3 10 -2 10 2 0 5 13 8 29 7 17 -1 38 5 48 13 16 13 16 13 -7 3 -24 -11 -24
-11 -5 5 28 23 79 49 71 37 -3 -6 2 -9 11 -8 10 2 23 13 29 25 8 16 13 19 17
9 4 -10 6 -10 6 0 1 8 6 10 14 6 9 -6 9 -4 -1 8 -11 14 -10 16 7 11 19 -5 26
5 22 30 -1 5 3 6 9 2 6 -3 8 -10 5 -15 -3 -5 0 -12 6 -16 8 -4 9 -3 5 4 -4 7
-2 12 4 12 6 0 8 5 5 10 -4 6 6 10 22 11 15 0 23 3 16 5 -15 7 -5 34 12 34 7
0 16 7 19 16 4 10 12 14 22 10 11 -4 15 -2 12 6 -3 7 4 21 15 31 19 19 19 18
12 -5 -7 -22 -7 -22 8 -3 8 11 13 24 10 29 -4 5 -1 6 5 2 7 -4 12 -2 12 5 0 6
8 18 18 26 9 8 11 11 3 7 -9 -5 -12 -3 -7 4 4 7 13 12 21 12 7 0 16 8 20 18 5
14 4 15 -6 5 -7 -7 -18 -13 -24 -13 -5 0 3 9 18 19 16 10 28 22 27 26 -1 4 11
16 27 27 27 19 27 19 3 13 -21 -5 -22 -4 -7 5 10 6 14 16 10 23 -4 7 0 7 10
-1 14 -12 16 -11 12 7 -2 12 1 20 8 18 7 -1 11 4 9 11 -1 6 3 12 9 12 5 0 7 4
4 10 -3 5 0 7 8 4 19 -7 32 12 16 22 -8 5 -9 3 -4 -6 6 -9 4 -11 -5 -5 -9 6
-6 13 12 29 13 11 18 17 11 12 -11 -7 -12 -4 -3 20 6 16 11 31 12 34 0 3 1 7
4 9 2 2 1 -6 -1 -18 -2 -12 0 -19 5 -16 4 3 7 16 6 30 -2 14 3 26 12 30 12 4
12 8 1 22 -12 15 -11 16 9 11 15 -4 20 -3 15 5 -13 21 -12 39 2 33 10 -3 12 3
8 26 -3 23 -1 28 9 22 7 -4 5 2 -5 13 -17 19 -16 21 5 48 13 16 17 26 10 21
-6 -4 -12 -4 -13 1 0 4 -2 16 -4 26 -2 9 1 15 5 12 12 -7 9 37 -3 53 -7 9 -5
11 9 5 17 -6 18 -5 4 12 -8 10 -10 16 -3 12 15 -9 28 33 20 64 -4 16 -2 19 10
15 12 -5 13 -3 5 7 -9 10 -8 17 1 27 9 10 9 11 0 6 -8 -4 -13 -1 -13 8 0 9 6
16 13 17 6 0 3 4 -8 9 -11 5 -14 9 -7 9 9 1 10 6 3 19 -5 10 -6 24 -1 32 5 8
5 21 -1 31 -13 26 -11 32 8 25 15 -6 15 -5 2 11 -18 20 -14 57 4 46 7 -4 6 1
-2 11 -13 15 -13 19 0 27 12 7 11 9 -2 9 -9 0 -20 7 -23 16 -5 14 -4 15 9 4
13 -11 14 -10 9 4 -3 9 -10 16 -14 16 -4 0 -10 7 -13 14 -4 11 -1 13 11 9 13
-6 13 -2 -5 22 -19 26 -19 31 -6 51 12 19 12 24 -2 37 -8 9 -15 22 -15 30 0 9
-6 17 -12 20 -10 3 -9 8 2 22 8 10 10 16 4 12 -7 -4 -14 2 -17 13 -3 11 -1 17
4 14 5 -3 7 3 6 13 -7 34 -19 53 -31 47 -6 -3 -2 2 9 12 20 16 20 16 -3 11
-12 -3 -20 -1 -16 4 3 5 13 9 22 10 11 0 12 3 5 6 -7 2 -13 16 -13 29 0 14 -4
22 -10 19 -5 -3 -10 -1 -10 4 0 6 5 11 12 11 6 0 3 7 -8 16 -10 8 -13 13 -7 9
9 -4 11 -1 7 9 -3 9 -10 16 -15 16 -5 0 -9 7 -9 16 0 9 -5 12 -12 8 -7 -4 -8
-3 -4 5 4 6 11 9 16 6 5 -3 12 -1 15 5 4 6 1 9 -7 8 -7 -2 -12 3 -11 10 2 6
-2 12 -7 12 -5 0 -9 3 -9 8 5 28 -2 52 -13 46 -8 -5 -7 0 2 11 14 17 13 18 -2
13 -11 -5 -15 -2 -13 10 1 9 -2 27 -6 40 -5 14 -5 21 0 18 11 -7 8 21 -4 31
-4 4 -5 2 -1 -4 5 -9 2 -11 -9 -6 -12 4 -13 8 -5 13 11 7 10 63 -4 135 -2 11
-4 26 -5 33 -1 9 -11 12 -28 10 -22 -2 -28 1 -27 15 2 13 -1 15 -10 8 -9 -8
-13 -6 -13 4 0 8 4 15 9 15 5 0 3 7 -6 15 -8 8 -21 15 -28 15 -10 0 -9 3 2 10
12 7 8 10 -15 11 -26 0 -27 2 -10 9 18 8 18 9 2 9 -10 1 -16 5 -12 10 3 5 0
13 -6 17 -8 4 -9 3 -5 -4 4 -7 2 -12 -3 -12 -6 0 -11 7 -11 16 0 13 -3 14 -13
5 -17 -14 -28 -4 -19 17 5 15 4 15 -12 3 -9 -8 -16 -10 -15 -5 4 21 -2 26 -17
14 -13 -11 -16 -10 -21 9 -4 17 -8 19 -14 9 -7 -10 -9 -9 -9 4 0 9 -5 20 -12
24 -7 5 -9 2 -5 -9 4 -11 2 -14 -8 -10 -8 3 -13 8 -10 13 2 4 -7 12 -21 19
-14 6 -23 7 -19 1 3 -6 -1 -7 -10 -4 -10 4 -14 13 -10 22 5 13 2 12 -14 -2
-19 -17 -19 -17 -14 3 3 13 1 21 -6 21 -7 0 -9 -5 -5 -11 5 -8 1 -8 -13 0 -11
6 -24 7 -29 3 -5 -4 -2 1 6 11 7 10 9 17 4 16 -19 -3 -34 1 -34 12 0 5 6 7 13
3 8 -5 8 -2 -2 9 -15 18 -26 23 -16 7 3 -5 1 -10 -4 -10 -6 0 -11 7 -11 16 0
9 -5 12 -12 8 -8 -5 -9 -2 -4 12 4 10 4 15 0 12 -8 -8 -34 14 -27 25 2 4 -1 7
-8 7 -8 0 -8 5 2 18 7 9 9 14 5 10 -15 -13 -35 24 -25 45 8 14 5 19 -13 26
l-23 8 23 7 c12 4 20 12 17 17 -9 14 -27 11 -19 -3 4 -7 3 -9 -1 -5 -5 4 -10
26 -11 47 -1 22 -7 47 -14 56 -11 13 -10 16 8 21 12 3 19 9 17 14 -3 4 -13 6
-23 3 -10 -4 -13 -2 -7 3 17 14 40 47 28 40 -18 -11 -21 45 -3 61 13 11 11 12
-10 7 -15 -4 -20 -3 -13 2 11 8 14 28 13 102 0 13 6 31 13 39 7 10 8 13 1 9
-7 -4 -14 0 -17 7 -3 8 -1 17 6 20 7 2 5 5 -5 5 -17 1 -19 16 -4 39 4 7 5 16
2 19 -3 4 -6 1 -6 -6 0 -9 -4 -9 -14 1 -12 11 -11 14 3 20 14 6 14 7 -1 7 -10
1 -18 6 -18 12 0 5 5 7 12 3 6 -4 8 -3 5 3 -4 6 -18 9 -31 8 -18 -2 -24 1 -21
14 2 12 -4 17 -21 17 -15 0 -23 -5 -20 -12z m-1889 -374 c-3 -5 -11 -10 -16
-10 -6 0 -7 5 -4 10 3 6 11 10 16 10 6 0 7 -4 4 -10z m1100 -248 c-3 -3 -11 0
-18 7 -9 10 -8 11 6 5 10 -3 15 -9 12 -12z m-1105 -232 c0 -5 -2 -10 -4 -10
-3 0 -8 5 -11 10 -3 6 -1 10 4 10 6 0 11 -4 11 -10z m2750 -834 c0 -3 -4 -8
-10 -11 -5 -3 -10 -1 -10 4 0 6 5 11 10 11 6 0 10 -2 10 -4z m35 -155 c3 -5 2
-12 -3 -15 -5 -3 -9 1 -9 9 0 17 3 19 12 6z m9 -507 c3 -8 2 -12 -4 -9 -6 3
-10 10 -10 16 0 14 7 11 14 -7z m-554 -928 c0 -3 -4 -8 -10 -11 -5 -3 -10 -1
-10 4 0 6 5 11 10 11 6 0 10 -2 10 -4z"/>
<path d="M2571 3714 c0 -11 3 -14 6 -6 3 7 2 16 -1 19 -3 4 -6 -2 -5 -13z"/>
<path d="M1950 3380 c0 -5 5 -10 10 -10 6 0 10 5 10 10 0 6 -4 10 -10 10 -5 0
-10 -4 -10 -10z"/>
<path d="M2645 3200 c3 -5 8 -10 11 -10 2 0 4 5 4 10 0 6 -5 10 -11 10 -5 0
-7 -4 -4 -10z"/>
<path d="M2060 3170 c-12 -8 -10 -9 7 -7 12 2 26 6 29 10 11 11 -19 8 -36 -3z"/>
<path d="M1470 3099 c0 -5 5 -7 10 -4 6 3 10 8 10 11 0 2 -4 4 -10 4 -5 0 -10
-5 -10 -11z"/>
<path d="M617 2029 c-4 -16 -3 -18 9 -8 7 6 11 15 8 20 -8 13 -11 11 -17 -12z"/>
<path d="M3380 1946 c0 -2 7 -7 16 -10 8 -3 12 -2 9 4 -6 10 -25 14 -25 6z"/>
<path d="M3410 1830 c-9 -6 -10 -10 -3 -10 6 0 15 5 18 10 8 12 4 12 -15 0z"/>
<path d="M715 1260 c3 -5 11 -10 16 -10 6 0 7 5 4 10 -3 6 -11 10 -16 10 -6 0
-7 -4 -4 -10z"/>
</g>
</svg>
