<svg width="24" height="24" viewBox="0 0 24 24" fill="none" xmlns="http://www.w3.org/2000/svg">
<path opacity="0.4" fill-rule="evenodd" clip-rule="evenodd" d="M17.5302 8.46967C17.8231 8.76256 17.8231 9.23744 17.5302 9.53033L13.5302 13.5303C13.3896 13.671 13.1988 13.75 12.9999 13.75C12.801 13.75 12.6102 13.671 12.4695 13.5303L10.9999 12.0607L7.53021 15.5303C7.23731 15.8232 6.76244 15.8232 6.46955 15.5303C6.17665 15.2374 6.17665 14.7626 6.46955 14.4697L10.4695 10.4697C10.7624 10.1768 11.2373 10.1768 11.5302 10.4697L12.9999 11.9393L16.4695 8.46967C16.7624 8.17678 17.2373 8.17678 17.5302 8.46967Z" fill="#22272F"/>
<path fill-rule="evenodd" clip-rule="evenodd" d="M9.96644 1.25L10 1.25H14L14.0336 1.25C15.4053 1.25 16.4807 1.24999 17.3451 1.32061C18.2252 1.39252 18.9523 1.54138 19.6104 1.87671C20.6924 2.42798 21.572 3.30762 22.1233 4.38955C22.4586 5.04769 22.6075 5.7748 22.6794 6.65494C22.75 7.51928 22.75 8.59471 22.75 9.96642V10V14V14.0336C22.75 15.4053 22.75 16.4807 22.6794 17.3451C22.6075 18.2252 22.4586 18.9523 22.1233 19.6104C21.572 20.6924 20.6924 21.572 19.6104 22.1233C18.9523 22.4586 18.2252 22.6075 17.3451 22.6794C16.4807 22.75 15.4053 22.75 14.0336 22.75H14H10H9.96642C8.59471 22.75 7.51928 22.75 6.65494 22.6794C5.7748 22.6075 5.04769 22.4586 4.38955 22.1233C3.30762 21.572 2.42798 20.6924 1.87671 19.6104C1.54138 18.9523 1.39252 18.2252 1.32061 17.3451C1.24999 16.4807 1.25 15.4053 1.25 14.0336L1.25 14V10L1.25 9.96644C1.25 8.59472 1.24999 7.51929 1.32061 6.65494C1.39252 5.7748 1.54138 5.04769 1.87671 4.38955C2.42798 3.30762 3.30762 2.42798 4.38955 1.87671C5.04769 1.54138 5.7748 1.39252 6.65494 1.32061C7.51929 1.24999 8.59472 1.25 9.96644 1.25ZM6.77708 2.81563C5.9897 2.87996 5.48197 3.00359 5.07054 3.21322C4.27085 3.62068 3.62068 4.27085 3.21322 5.07054C3.00359 5.48197 2.87996 5.9897 2.81563 6.77708C2.75058 7.57322 2.75 8.58749 2.75 10V14C2.75 15.4125 2.75058 16.4268 2.81563 17.2229C2.87996 18.0103 3.00359 18.518 3.21322 18.9295C3.62068 19.7291 4.27085 20.3793 5.07054 20.7868C5.48197 20.9964 5.9897 21.12 6.77708 21.1844C7.57322 21.2494 8.58749 21.25 10 21.25H14C15.4125 21.25 16.4268 21.2494 17.2229 21.1844C18.0103 21.12 18.518 20.9964 18.9295 20.7868C19.7291 20.3793 20.3793 19.7291 20.7868 18.9295C20.9964 18.518 21.12 18.0103 21.1844 17.2229C21.2494 16.4268 21.25 15.4125 21.25 14V10C21.25 8.58749 21.2494 7.57322 21.1844 6.77708C21.12 5.9897 20.9964 5.48197 20.7868 5.07054C20.3793 4.27085 19.7291 3.62068 18.9295 3.21322C18.518 3.00359 18.0103 2.87996 17.2229 2.81563C16.4268 2.75058 15.4125 2.75 14 2.75H10C8.58749 2.75 7.57322 2.75058 6.77708 2.81563Z" fill="#22272F"/>
</svg>
