<svg width="24" height="24" viewBox="0 0 24 24" fill="none" xmlns="http://www.w3.org/2000/svg">
<path opacity="0.4" fill-rule="evenodd" clip-rule="evenodd" d="M6.25 8C6.25 7.58579 6.58579 7.25 7 7.25H17C17.4142 7.25 17.75 7.58579 17.75 8C17.75 8.41421 17.4142 8.75 17 8.75H7C6.58579 8.75 6.25 8.41421 6.25 8ZM9 13C9 13.5523 8.55228 14 8 14C7.44772 14 7 13.5523 7 13C7 12.4477 7.44772 12 8 12C8.55228 12 9 12.4477 9 13ZM8 18C8.55228 18 9 17.5523 9 17C9 16.4477 8.55228 16 8 16C7.44772 16 7 16.4477 7 17C7 17.5523 7.44772 18 8 18ZM13 17C13 17.5523 12.5523 18 12 18C11.4477 18 11 17.5523 11 17C11 16.4477 11.4477 16 12 16C12.5523 16 13 16.4477 13 17ZM16 18C16.5523 18 17 17.5523 17 17C17 16.4477 16.5523 16 16 16C15.4477 16 15 16.4477 15 17C15 17.5523 15.4477 18 16 18ZM13 13C13 13.5523 12.5523 14 12 14C11.4477 14 11 13.5523 11 13C11 12.4477 11.4477 12 12 12C12.5523 12 13 12.4477 13 13ZM16 14C16.5523 14 17 13.5523 17 13C17 12.4477 16.5523 12 16 12C15.4477 12 15 12.4477 15 13C15 13.5523 15.4477 14 16 14Z" fill="#22272F"/>
<path fill-rule="evenodd" clip-rule="evenodd" d="M8 0.25C8.41421 0.25 8.75 0.585786 8.75 1V1.27399C9.55145 1.25 10.4795 1.25 11.566 1.25H11.5661H11.6H12.4H12.4339C13.5205 1.25 14.4485 1.25 15.25 1.27399V1C15.25 0.585786 15.5858 0.25 16 0.25C16.4142 0.25 16.75 0.585786 16.75 1V1.36694C17.6402 1.46238 18.386 1.64 19.0644 1.98571C20.3345 2.63285 21.3671 3.66547 22.0143 4.93556C22.4041 5.70065 22.5802 6.55124 22.6658 7.59814C22.75 8.6292 22.75 9.91456 22.75 11.5659V11.566V11.566V11.6V12.4V12.434V12.434V12.4341C22.75 14.0854 22.75 15.3708 22.6658 16.4019C22.5802 17.4488 22.4041 18.2994 22.0143 19.0644C21.3671 20.3345 20.3345 21.3671 19.0644 22.0143C18.2994 22.4041 17.4488 22.5802 16.4019 22.6658C15.3708 22.75 14.0854 22.75 12.4341 22.75H12.434H12.434H12.4H11.6H11.566H11.566H11.5659C9.91456 22.75 8.6292 22.75 7.59814 22.6658C6.55124 22.5802 5.70065 22.4041 4.93556 22.0143C3.66547 21.3671 2.63285 20.3345 1.98571 19.0644C1.59588 18.2994 1.41977 17.4488 1.33424 16.4019C1.24999 15.3708 1.25 14.0854 1.25 12.434V12.4339V12.4V11.6V11.5661V11.566C1.25 9.91462 1.24999 8.62922 1.33424 7.59814C1.41977 6.55124 1.59588 5.70065 1.98571 4.93556C2.63285 3.66547 3.66547 2.63285 4.93556 1.98571C5.61404 1.64 6.35977 1.46238 7.25 1.36694V1C7.25 0.585786 7.58579 0.25 8 0.25ZM15.25 2.7746V4C15.25 4.41421 15.5858 4.75 16 4.75C16.4142 4.75 16.75 4.41421 16.75 4V2.87684C17.4503 2.9632 17.9554 3.10409 18.3834 3.32222C19.3713 3.82555 20.1744 4.6287 20.6778 5.61655C20.9419 6.13493 21.0928 6.76615 21.1707 7.72029C21.2494 8.68317 21.25 9.90747 21.25 11.6V12.4C21.25 14.0925 21.2494 15.3168 21.1707 16.2797C21.0928 17.2338 20.9419 17.8651 20.6778 18.3834C20.1744 19.3713 19.3713 20.1744 18.3834 20.6778C17.8651 20.9419 17.2338 21.0928 16.2797 21.1707C15.3168 21.2494 14.0925 21.25 12.4 21.25H11.6C9.90747 21.25 8.68317 21.2494 7.72029 21.1707C6.76615 21.0928 6.13493 20.9419 5.61655 20.6778C4.6287 20.1744 3.82555 19.3713 3.32222 18.3834C3.05809 17.8651 2.90721 17.2338 2.82925 16.2797C2.75058 15.3168 2.75 14.0925 2.75 12.4V11.6C2.75 9.90747 2.75058 8.68317 2.82925 7.72029C2.90721 6.76615 3.05809 6.13493 3.32222 5.61655C3.82555 4.6287 4.6287 3.82555 5.61655 3.32222C6.04464 3.10409 6.54969 2.9632 7.25 2.87684V4C7.25 4.41421 7.58579 4.75 8 4.75C8.41421 4.75 8.75 4.41421 8.75 4V2.7746C9.52919 2.75027 10.458 2.75 11.6 2.75H12.4C13.542 2.75 14.4708 2.75027 15.25 2.7746Z" fill="#22272F"/>
</svg>
