<svg xmlns="http://www.w3.org/2000/svg" viewBox="0 0 390.0202 197.86134"><defs><style>.a{fill:none;}.b{fill:#000;}</style></defs><path class="a" d="M204.05156,163.63853c3.9717-.6128,6.2345,1.5557,5.1149,5.5274-3.1703,11.2788-6.4467,22.5458-9.1102,33.9424-.9547,4.066-.7661,7.4956-.8722,11.7737-.0707,3.0171-.9782,5.2682-4.1131,4.7025-3.3-.6011-6.6471-.8957-9.9706-1.3318-5.881-.7778-7.0949-1.7207-5.5156-7.2128,2.9582-10.2887,6.3995-20.4714,10.2888-30.4302,1.7914-4.5964,4.066-9.452,7.3541-12.8698C199.05446,165.83063,202.41336,163.886,204.05156,163.63853Z" transform="translate(-60.32763 -157.06951)"/><path class="a" d="M317.44015,162.625c2.31,1.8267,1.756,5.4213,1.1785,6.6824-4.1013,8.957-3.4885,17.8197-5.1738,27.1303-1.2257,6.7177-1.8032,13.4355-2.7225,20.1532a4.72462,4.72462,0,0,1-1.5557,3.3589,3.69642,3.69642,0,0,1-3.406.0825c-2.416-.2711-5.0324-.6246-7.6606-.825-4.6199-.3653-7.2952-.2828-7.967-1.7796-.5186-1.1314.3418-3.2764,1.0961-6.5645,2.0506-8.8156,4.9381-17.4426,7.7431-26.0579a95.10488,95.10488,0,0,1,6.2463-15.8515c1.46141-2.7107,3.1349-5.8456,7.307-6.9181C313.78665,161.71753,316.28515,161.71753,317.44015,162.625Z" transform="translate(-60.32763 -157.06951)"/><path class="a" d="M442.69685,210.816a9.6609,9.6609,0,0,1,1.921,10.3949c-1.6146,3.3942-3.9246,5.7042-9.8763,7.2127-3.2999.8368-7.8491,3.8892-9.6641,7.1774-3.5828,6.4585-4.3371,14.0837-4.3017,21.8032.0589,12.5516-3.6653,23.9718-13.1763,32.9642-7.0831,6.6942-16.1344,9.0277-25.0442,11.6677a65.05545,65.05545,0,0,1-14.2487,2.8049c-5.9164.2947-9.7231.6247-10.9959-1.5675-.4243-.7424,1.1785-6.0931,1.9681-13.954.165-1.7207,3.0525-2.0271,4.9853-2.4868,12.9995-3.1349,20.4715-12.0212,25.0207-23.571,2.0389-5.1739,2.1568-11.1374,2.97-16.7709.99-6.8474,1.2139-13.848,2.7931-20.5422,3.3825-14.3783,15.9694-21.9093,31.0078-21.485C433.622,204.68753,438.26545,206.37293,442.69685,210.816Z" transform="translate(-60.32763 -157.06951)"/><path class="a" d="M364.78265,203.674c2.5457,1.0607,3.66531,3.6535,3.1349,6.4938-1.8621,10.0295-9.6287,17.4662-13.3058,26.5646a141.88359,141.88359,0,0,0-10.2652,43.9247,33.46326,33.46326,0,0,0,0,5.7513c.106,1.049.2121,2.8993,1.32,3.0525,1.2139.165,2.0388-1.7914,2.2863-2.8757,1.0136-4.4196.8368-7.7549,1.8975-13.5651.3889-2.1568-.2003-5.6924,1.17861-5.8928,1.29639-.1886,2.35709,4.5139,2.94639,7.0713a48.51709,48.51709,0,0,1-1.8268,26.0343,31.908,31.908,0,0,1-8.4149,11.9034c-10.2652,8.9098-23.3471,11.5616-36.0991,14.8497a168.985,168.985,0,0,1-41.2022,5.4214c-15.30939.1414-30.5952,1.9564-45.9047,2.2274-19.82319.3536-39.65829.1533-59.48149-.3064-8.4974-.2003-17.0066-1.096-25.1268-4.4195-2.3925-.9782-5.716-.4597-8.462.2239a200.83006,200.83006,0,0,1-31.1374,5.2917c-1.5203.1414-4.1839.6482-4.7142-.4479-.6836-1.426.4007-2.9817,1.32-4.2074a43.43212,43.43212,0,0,1,10.5716-10.5009c1.8857-1.3082,3.1703-2.3571,5.716-1.3671,1.3435.5185,4.4078.3771,5.1267-1.2729.6364-1.4496-1.1904-3.0289-2.1921-4.1956-5.9989-6.9299-11.5734-14.1427-14.3902-22.9936a47.62163,47.62163,0,0,1-2.4749-11.7266c-.165-3.135-1.3318-4.1367-4.0896-4.6789-5.6335-1.096-11.2552-2.2864-16.759-3.8303-1.5675-.436-4.8321-1.1078-5.0796-2.8756-.2004-1.3789,2.145-2.97,4.6788-4.5139a34.6802,34.6802,0,0,1,13.0938-4.5256c.8603-.1061,3.0996-.9311,4.2781.1414,5.716,5.2799,6.1285-.495,8.0849-3.5239,11.868-18.4915,27.3778-29.5935,49.2164-31.9741,8.9924-.9782,17.5133-.884,26.5174-.884,6.376,0,14.5316,1.32,20.9312,2.0861,8.297.99,16.6411,2.0978,24.97349,2.0978,4.0896,0,3.465,1.0725,3.0289,3.901-1.0254,6.6235-1.7561,13.3177-2.2982,20.0001a48.88344,48.88344,0,0,0,.495,8.5798c.0471.5068.7661,1.3554,1.1314,1.3436a2.11169,2.11169,0,0,0,1.6382-1.0607,40.96012,40.96012,0,0,0,.99-5.6217c1.3082-11.9034,2.6871-23.8304,7.2127-35.0148,4.125-10.1945,7.1539-18.7037,11.7266-28.7214.7897-1.7207,3.4532-5.2092,4.9382-6.1167,1.5557-.9428,4.1721-1.6028,5.7278-.766a6.26538,6.26538,0,0,1,3.3824,5.6099c-.01179,2.8167-1.8975,6.2345-2.5575,9.0277-3.3824,14.4726-7.1774,26.9417-9.7937,41.5322-1.4143,7.8963-.6247,16.2051-.51859,24.3254.02359,1.5203.69529,4.4549,2.42779,4.5374,1.7207.0825,2.6164-2.7342,2.8285-4.2546.6718-4.7378-.2475-9.6641-.0471-18.0083a65.91791,65.91791,0,0,1,1.9564-13.3648c.36541-1.6382,1.0725-3.7006,1.9682-4.5138s2.6517-1.0136,4.4785-1.2847c7.10671-1.0724,14.0366-2.416,22.3336-3.1349a79.7088,79.7088,0,0,1,25.6335,2.2628,33.34293,33.34293,0,0,1,10.2181,4.3135c4.2663,2.9346,6.5763,4.9146,7.4602,6.8828.8604,1.921-.3182,4.3135-2.1685,8.6152-4.9028,11.4202-7.18919,17.4072-10.0059,28.3089a51.06465,51.06465,0,0,0-1.1786,5.8927c-.1886,1.2139-.2475,3.6653,1.0136,3.96,1.4024.33,2.4514-2.2393,2.7106-3.3707,1.1668-4.9381,3.01711-9.2281,4.5728-13.9894a193.43407,193.43407,0,0,1,22.8286-46.7297c4.1603-6.3052,9.7231-12.5162,14.6376-14.9087C359.39665,203.74473,363.17985,202.99043,364.78265,203.674Z" transform="translate(-60.32763 -157.06951)"/><path class="b" d="M222.35445,258.71243a48.88344,48.88344,0,0,1-.495-8.5798c.5421-6.6824,1.2728-13.3766,2.2982-20.0001.4361-2.8285,1.0607-3.901-3.0289-3.901-8.33239,0-16.67649-1.1078-24.97349-2.0978-6.3996-.7661-14.5552-2.0861-20.9312-2.0861-9.0041,0-17.525-.0942-26.5174.884-21.8386,2.3806-37.3484,13.4826-49.2164,31.9741-1.9564,3.0289-2.3689,8.8038-8.0849,3.5239-1.1785-1.0725-3.4178-.2475-4.2781-.1414a34.6802,34.6802,0,0,0-13.0938,4.5256c-2.5338,1.5439-4.8792,3.135-4.6788,4.5139.2475,1.7678,3.5121,2.4396,5.0796,2.8756,5.5038,1.5439,11.1255,2.7343,16.759,3.8303,2.7578.5422,3.9246,1.5439,4.0896,4.6789a47.62163,47.62163,0,0,0,2.4749,11.7266c2.8168,8.8509,8.3913,16.0637,14.3902,22.9936,1.0017,1.1667,2.8285,2.746,2.1921,4.1956-.7189,1.65-3.7832,1.7914-5.1267,1.2729-2.5457-.99-3.8303.0589-5.716,1.3671a43.43212,43.43212,0,0,0-10.5716,10.5009c-.9193,1.2257-2.0036,2.7814-1.32,4.2074.5303,1.0961,3.1939.5893,4.7142.4479a200.83006,200.83006,0,0,0,31.1374-5.2917c2.746-.6836,6.0695-1.2021,8.462-.2239,8.1202,3.3235,16.6294,4.2192,25.1268,4.4195,19.8232.4597,39.6583.66,59.48149.3064,15.3095-.271,30.59531-2.086,45.9047-2.2274a168.985,168.985,0,0,0,41.2022-5.4214c12.752-3.2881,25.8339-5.9399,36.0991-14.8497a31.908,31.908,0,0,0,8.4149-11.9034,48.51709,48.51709,0,0,0,1.8268-26.0343c-.5893-2.5574-1.65-7.2599-2.94639-7.0713-1.37891.2004-.78971,3.736-1.17861,5.8928-1.0607,5.8102-.8839,9.1455-1.8975,13.5651-.2475,1.0843-1.0724,3.0407-2.2863,2.8757-1.1079-.1532-1.214-2.0035-1.32-3.0525a33.46326,33.46326,0,0,1,0-5.7513,141.88359,141.88359,0,0,1,10.2652-43.9247c3.6771-9.0984,11.4437-16.5351,13.3058-26.5646.53041-2.8403-.5892-5.4331-3.1349-6.4938-1.6028-.6836-5.386.0707-6.8828.7896-4.9145,2.3925-10.4773,8.6035-14.6376,14.9087a193.43407,193.43407,0,0,0-22.8286,46.7297c-1.55569,4.7613-3.406,9.0513-4.5728,13.9894-.2592,1.1314-1.3082,3.7007-2.7106,3.3707-1.2611-.2947-1.2022-2.7461-1.0136-3.96a51.06465,51.06465,0,0,1,1.1786-5.8927c2.81671-10.9017,5.1031-16.8887,10.0059-28.3089,1.8503-4.3017,3.0289-6.6942,2.1685-8.6152-.8839-1.9682-3.1939-3.9482-7.4602-6.8828a33.34293,33.34293,0,0,0-10.2181-4.3135,79.7088,79.7088,0,0,0-25.6335-2.2628c-8.297.7189-15.22689,2.0625-22.3336,3.1349-1.8268.2711-3.5828.4715-4.4785,1.2847s-1.60279,2.8756-1.9682,4.5138a65.91791,65.91791,0,0,0-1.9564,13.3648c-.2004,8.3442.7189,13.2705.0471,18.0083-.2121,1.5204-1.1078,4.3371-2.8285,4.2546-1.7325-.0825-2.4042-3.0171-2.42779-4.5374-.10611-8.1203-.89571-16.4291.51859-24.3254,2.6163-14.5905,6.4113-27.0596,9.7937-41.5322.66-2.7932,2.54571-6.211,2.5575-9.0277a6.26538,6.26538,0,0,0-3.3824-5.6099c-1.5557-.8368-4.1721-.1768-5.7278.766-1.485.9075-4.1485,4.396-4.9382,6.1167-4.5727,10.0177-7.6016,18.5269-11.7266,28.7214-4.5256,11.1844-5.9045,23.1114-7.2127,35.0148a40.96012,40.96012,0,0,1-.99,5.6217,2.11169,2.11169,0,0,1-1.6382,1.0607C223.12055,260.06783,222.40155,259.21923,222.35445,258.71243Zm222.2752-52.752c5.81031,4.6553,7.73131,13.6123,3.2292,19.5286-2.3924,3.1468-6.152,4.3607-9.617,5.6099-8.02589,2.8993-9.782,9.4992-11.98589,16.2994-1.01351,3.0878-.98991,6.5881-1.02531,9.9117-.1414,11.3141-3.0289,22.97-9.5816,32.2098-4.6435,6.5528-11.9152,10.5716-19.4462,13.2587a132.22152,132.22152,0,0,1-21.6971,5.8928,41.13493,41.13493,0,0,1-13.4591.2947,39.0124,39.0124,0,0,0-5.3035-.389,7.47128,7.47128,0,0,0-3.9364,2.5457c-10.5009,12.257-23.465,15.3919-38.303,19.4933a228.42972,228.42972,0,0,1-66.0579,8.2734c-10.99589-.2121-22.0272,1.2257-33.0231,1.0843-31.39659-.4125-50.98419.2239-62.97009-1.155a105.04507,105.04507,0,0,1-14.1426-2.3571c-7.6606-2.1567-18.1733,1.8857-29.9471,2.7814q-10.35945.79545-20.7307,1.426c-3.3942.2004-3.2646-1.6028-2.3453-4.1485,2.7342-7.5309,8.3677-13.5651,14.3312-18.4208,1.8503-1.5085,2.8992-2.7696,3.0878-4.1249.2003-1.3553-.4714-2.8049-2.0743-4.6317-6.152-7.036-9.0748-15.4508-10.6777-24.5257-.2592-1.4732-.1532-4.1367-2.911-5.1149-6.8356-2.4514-14.0248-4.726-20.8957-7.5074-5.9871-2.4278-6.2817-3.1821-1.5204-7.3424,6.4467-5.6217,15.0973-10.7602,24.6554-11.9387,2.0153-.2358,4.3253-.4125,5.9163-1.2493,1.9564-1.0489,3.0996-2.9346,4.6199-5.1032,5.3742-7.6488,13.1055-13.1055,20.4951-18.5386,4.4313-3.2528,11.9269-5.9281,17.3129-7.4485,11.4909-3.241,20.5304-2.5574,31.7267-3.1938a4.9941,4.9941,0,0,0,2.4278-.825,5.88612,5.88612,0,0,0,1.8739-3.0878c1.7678-5.1975,3.5121-10.3831,5.3035-15.5569,2.1214-6.1049,4.5846-12.1038,6.3524-18.303a31.06765,31.06765,0,0,1,15.168-19.2104,15.316,15.316,0,0,1,8.7095-2.1096c3.571.4125,6.6117,2.805,6.50559,6.8827a29.1009,29.1009,0,0,1-1.50849,7.7078c-1.4732,4.8085-3.5239,9.4638-4.7496,14.3194-2.1568,8.5327-4.1367,17.2658-4.0542,26.0343.0235,2.3453-1.1668,5.4802-.0825,7.0359.8721,1.2611,4.3842.7072,6.7295.8839,7.33059.5657,13.10549,1.1904,15.46259.0118,1.1786-.5893,2.475-6.1992,5.89281-15.6158,2.34529-6.4349,6.22279-13.7655,9.34589-19.9411,3.3235-6.5764,11.9623-9.452,17.0419-6.8121,4.9735,2.5928,6.3878,9.0985,4.05421,16.5351-2.36891,7.531-4.28991,15.2034-6.482,22.7933-.43611,1.4731-1.21391,3.0524-.77791,3.8303.4361.7778,2.4868.2592,4.3135,0,6.84741-.99,10.4538-1.5204,17.28941-2.5575,1.44959-.2239,6.09309-.5539,6.871-1.3789.80139-.8368,1.35529-3.9482,1.76779-5.4921,3.1468-11.5969,7.1774-26.376,11.8327-40.224,2.251-6.6942,7.4249-13.2116,13.8009-14.7673,4.3842-1.0842,7.16561-.2946,10.2887,2.64,1.9918,1.8621,2.97,6.977,1.6618,9.8055-3.2057,6.8946-4.3135,13.9188-4.5728,21.5204-.3182,9.0513-2.1332,18.0673-3.6653,27.0478a8.21507,8.21507,0,0,0-.0589,3.3353c.3182,1.2611,1.4025,1.7914,3.0406,2.8286a47.8333,47.8333,0,0,1,5.19751,3.3235c1.56739,1.3789,4.54919,3.7714,5.89269,3.5356,1.3436-.2357,1.6854-2.9463,3.99531-6.3052,3.52389-5.1149,6.59989-10.6541,10.772-15.1798,3.98349-4.3135,9.06309-9.3223,13.91869-10.937,3.5239-1.1667,8.2381-.766,11.2788,1.4615,4.0896,2.9935,4.2192,7.5545,3.6417,10.7366-.9428,5.1031-3.0289,8.6506-6.6824,14.1426a72.40691,72.40691,0,0,0-9.6406,19.8586c-1.3553,4.6907-3.4767,9.1692-3.1231,12.5516.2121,2.0625,1.5085,4.5846,2.47491,6.7296,2.26289,4.9853,2.82859,8.7802,3.27639,13.9658.2004,2.2275.8014,3.3943,1.4143,3.9482.7778.6835,2.0271.2946,4.7731-.6129,11.8327-3.9128,18.6565-12.3866,21.0018-24.2546,1.2847-6.5292,1.32-13.3059,1.7207-19.9883.5775-9.4637,2.38071-18.3382,8.92171-25.8692,6.44669-7.4131,14.86149-10.2299,24.01889-11.3259C430.381,199.36053,439.008,201.44653,444.62965,205.96043Zm-.0118,15.2505a9.6609,9.6609,0,0,0-1.921-10.3949c-4.4314-4.4431-9.07489-6.1285-16.6412-6.3524-15.0384-.4243-27.6253,7.1067-31.0078,21.485-1.5792,6.6942-1.8031,13.6948-2.7931,20.5422-.8132,5.6335-.9311,11.597-2.97,16.7709-4.5492,11.5498-12.0212,20.4361-25.0207,23.571-1.9328.4597-4.8203.7661-4.9853,2.4868-.7896,7.8609-2.3924,13.2116-1.9681,13.954,1.2728,2.1922,5.0795,1.8622,10.9959,1.5675a65.05545,65.05545,0,0,0,14.2487-2.8049c8.9098-2.64,17.9611-4.9735,25.0442-11.6677,9.511-8.9924,13.2352-20.4126,13.1763-32.9642-.0354-7.7195.7189-15.3447,4.3017-21.8032,1.815-3.2882,6.3642-6.3406,9.6641-7.1774C440.69325,226.91513,443.00325,224.60513,444.61785,221.21093Zm-125.9992-51.9035c.5775-1.2611,1.1315-4.8557-1.1785-6.6824-1.155-.9075-3.6535-.9075-4.9146-.5893-4.1721,1.0725-5.84559,4.2074-7.307,6.9181a95.10488,95.10488,0,0,0-6.2463,15.8515c-2.805,8.6153-5.6925,17.2423-7.7431,26.0579-.7543,3.2881-1.6147,5.4331-1.0961,6.5645.6718,1.4968,3.3471,1.4143,7.967,1.7796,2.6282.2004,5.2446.5539,7.6606.825a3.69642,3.69642,0,0,0,3.406-.0825,4.72462,4.72462,0,0,0,1.5557-3.3589c.9193-6.7177,1.4968-13.4355,2.7225-20.1532C315.13015,187.12713,314.51735,178.26443,318.61865,169.30743Zm-109.45219-.1415c1.1196-3.9717-1.1432-6.1402-5.1149-5.5274-1.6382.2475-4.9971,2.1921-6.8239,4.1014-3.2881,3.4178-5.5627,8.2734-7.3541,12.8698-3.8893,9.9588-7.3306,20.1415-10.2888,30.4302-1.5793,5.4921-.3654,6.435,5.5156,7.2128,3.3235.4361,6.6706.7307,9.9706,1.3318,3.1349.5657,4.0424-1.6854,4.1131-4.7025.1061-4.2781-.0825-7.7077.8722-11.7737C202.71976,191.71173,205.99616,180.44473,209.16646,169.16593Z" transform="translate(-60.32763 -157.06951)"/><path class="a" d="M181.23656,239.84153c2.6583-1.1974,4.7429-.3055,4.3289.5723-.8152,1.685-2.1357,3.268-2.3879,5.1383-.8219,6.0225-4.3204,9.7768-4.9244,12.3018-.6409,2.6306-1.1124,4.1911-2.0979,4.6713-.8078.4121-1.9696.0763-3.8626-1.0132-1.8696-1.0773-2.5228-2.313-2.3341-3.0999.7322-3.2067,1.9223-6.3005,2.9479-9.432a12.2732,12.2732,0,0,1,2.702-5.6405C176.92666,241.90983,178.70886,240.97023,181.23656,239.84153Z" transform="translate(-60.32763 -157.06951)"/><path class="b" d="M167.019,298.47853c7.4294-1.7972,15.3841-10.2813,15.8271-17.7475.145-2.5792-1.3406-5.6662-2.7467-7.7738-3.1694-4.7626-7.3221-6.0748-11.3631-8.5404a4.834,4.834,0,0,0-4.0434-.7448,4.39412,4.39412,0,0,0-2.679,3.3423c-.8746,3.2753-3.8844,4.326-5.8977,3.3998-2.1068-.9866-3.624-4.3217-2.9443-7.1756.6921-2.9009,2.7275-5.7697,5.9862-4.5771a6.507,6.507,0,0,0,4.1202.3452c2.5337-.7514,3.4956-3.5658,3.8123-5.8005a38.40435,38.40435,0,0,0,.0009-10.1956,46.18941,46.18941,0,0,0-.9587-5.189c-.6002-2.4018-2.8821-4.275-5.2601-5.2539-3.4203-1.419-5.8323-.9251-7.8245-1.686-1.3477-.5154-3.811-1.307-3.5643-2.812.2592-1.552,2.9231-1.5588,4.4092-1.6189,5.4253-.2244,11.7846,2.4884,14.8192,6.813,1.9153,2.7281,2.7709,5.3931,3.7582,5.573,1.3638.2328,2.7202-1.385,6.2795-2.9225a22.54107,22.54107,0,0,1,6.2438-1.3435c3.0463-.3547,4.7101-.471,5.7274.063,1.2628.6791,1.5199,2.3803,2.2198,5.9859.972,5.0949,3.2206,9.9497,4.7836,14.9356.2475.7817.5787,2.26-.2167,2.637-.7361.3542-1.4912-.3762-2.0125-.9852-1.5632-1.8506-3.3878-3.5637-4.2133-5.0967-1.4788-2.7569-1.4409-6.0449-2.397-5.9532-1.4993.1541-2.1421,5.2481-2.9226,6.9807-.5974,1.3111-2.2763,3.207-3.0626,6.8844a30.66745,30.66745,0,0,0-.8394,4.8435c-.0612,1.7082.5105,2.872,2.0624,5.4768,5.506,9.2534,3.5781,21.3883-5.4429,27.11-4.4511,2.8323-10.1573,3.7007-15.3559,5.2959-.6513.2023-2.1915-.0567-2.4379-.9091-.2909-1.0299,1.0809-2.1053,1.9356-2.5049C164.06836,298.74033,165.62316,298.811,167.019,298.47853Zm18.5465-58.0647c.414-.8778-1.6706-1.7697-4.3289-.5723-2.5277,1.1287-4.3099,2.0683-5.6281,3.4981a12.2732,12.2732,0,0,0-2.702,5.6405c-1.0256,3.1315-2.2157,6.2253-2.9479,9.432-.1887.7869.4645,2.0226,2.3341,3.0999,1.893,1.0895,3.0548,1.4253,3.8626,1.0132.9855-.4802,1.457-2.0407,2.0979-4.6713.604-2.525,4.1025-6.2793,4.9244-12.3018C183.42976,243.68183,184.75026,242.09883,185.56546,240.41383Z" transform="translate(-60.32763 -157.06951)"/><path class="b" d="M153.65816,298.092c-.4647,1.4223-2.752,1.4245-3.5365,1.0893a30.7329,30.7329,0,0,1-6.1197-3.6655c-3.2784-2.4331-5.1417-4.7141-6.4885-4.3457-1.3734.3756-2.2099,3.4619-3.4881,7.327a8.6406,8.6406,0,0,1-2.1173,3.5438c-.9467.8788-2.4051,2.3968-3.6205,1.7958-1.1654-.5762-.9993-2.646-.7326-3.7905a24.49125,24.49125,0,0,1,2.6454-7.3354c1.0818-1.7442,1.296-2.9636.8415-3.9491-.4545-.9854-1.5779-1.7369-3.1713-2.5453a39.09428,39.09428,0,0,1-7.8595-5.8911,3.12612,3.12612,0,0,1-.3314-3.0786c.5327-.6327,2.1754-.7769,3.1496-.495a34.68426,34.68426,0,0,1,5.2181,2.3113c3.1296,1.5042,5.5079,3.2915,6.9713,2.9849,1.5187-.3182,2.1024-2.8089,4.3318-5.5801,1.3292-1.6522,3.6682-4.3495,4.845-3.8918,2.0688.8047.5596,4.7391-.5572,6.8465-1.462,2.7588-2.2423,4.1635-2.1181,5.3665.133,1.2883.5769,2.389,3.0578,4.6298,2.4431,2.2067,4.4501,3.6409,6.6567,5.5263C153.14706,296.57923,154.11616,296.69,153.65816,298.092Z" transform="translate(-60.32763 -157.06951)"/><path class="b" d="M130.19636,239.54013c-3.075,1.9402-4.2577,6.2561-5.765,6.6491-1.3101.3416-5.7688-1.6998-9.2119-2.4692-.5811-.1299-1.8876.0274-2.0526.8078-.1843.8719,1.0565,1.824,1.6255,2.2675,2.7613,2.1519,6.8219,3.677,7.7357,5.7126.4568,1.0178.0248,3.7827-.8671,6.4401a5.01086,5.01086,0,0,0,.177,3.2145c.5272,1.2468,1.1018,3.4788,2.3681,3.4418,1.0618-.031,1.1195-1.9085,1.2501-2.9712.6268-5.0967.8699-7.1686,2.7472-7.5815,1.2825-.2821,3.3277.2102,6.7789,1.0413,1.8324.4413,3.6602,1.0093,5.4967,1.2823.6487.0965,1.775-.0665,1.9768-.7999.2094-.7606-.64-1.839-1.2171-2.1781-2.2276-1.3089-4.2471-2.0182-6.4972-3.2825-1.7776-.9987-3.7976-1.4375-4.3535-2.1033-.9264-1.1097.2092-2.5351,1.7257-4.5547,1.3783-1.8355,2.4591-3.764,1.7572-4.6924C133.144,238.803,131.4,238.78073,130.19636,239.54013Z" transform="translate(-60.32763 -157.06951)"/><path class="b" d="M170.72966,316.432c.4622.1481,1.3909.8655.86,2.7445a12.304,12.304,0,0,0-.1421,8.0239,52.65932,52.65932,0,0,1,1.3809,8.5722c.3219,3.0955,3.0859,7.0652,3.8183,10.0838.6855,2.8244,2.6506,8.8692,2.0012,9.0738-.18.0568-2.124-3.7965-4.4479-8.2583-1.5787-3.0312-3.5519-6.15-4.4166-9.2639-1.1501-4.1418-.5787-5.722-2.3117-10.9212-.6413-1.9239-.1049-5.8732.7447-7.9406C168.726,317.30633,169.65406,316.08723,170.72966,316.432Z" transform="translate(-60.32763 -157.06951)"/><path class="b" d="M125.95366,211.75473c-1.4699-1.4588-2.1126-3.6005-2.8823-5.311-1.4693-3.2655-2.179-5.9574-1.768-6.038.3854-.0756,1.8582,2.3265,3.7331,5.1817,1.2068,1.8377,1.5552,3.1329,3.191,4.535,3.5681,3.0584,7.2499,5.2228,8.8692,8.4615,1.0195,2.0389,3.877,4.0358,3.466,4.8132-.1689.3196-1.328.4423-1.8027.3689a7.52383,7.52383,0,0,1-3.8665-2.0679C131.077,216.13873,130.16446,215.93333,125.95366,211.75473Z" transform="translate(-60.32763 -157.06951)"/><path class="b" d="M137.44526,187.97583c.3527.1387,1.9235,3.309,3.028,7.7399.6143,2.4647.0439,8.608,2.2428,11.214,2.7525,3.2623,5.5042,11.1033,5.9128,12.0295.3506.7946,1.6787,3.1845.6753,3.7899-.9316.5622-2.6856-.8915-3.4278-1.7509-1.2079-1.3992-3.4661-8.6654-6.5467-13.269-1.9275-2.8805-1.0376-8.5071-1.405-12.5232C137.525,190.83683,136.90606,187.76363,137.44526,187.97583Z" transform="translate(-60.32763 -157.06951)"/><path class="b" d="M189.23086,334.871c2.6446,4.1421,3.6656,7.5511,5.3521,8.9967,1.0704.9175,1.6756,2.3592,1.3267,2.147-.6386-.3885-2.2159-1.5253-2.55-1.7647-3.0584-2.1919-3.2501-4.3355-5.7481-6.9378-2.4981-2.6024-3.3383-6.4317-4.8033-9.3735-1.4314-2.8744-4.05-4.8907-4.3836-8.0536-.0717-.6786-.2626-2.2316.4398-2.4768,1.3455-.4698,1.5231.5192,2.0448,1.1108a35.84238,35.84238,0,0,1,5.0593,7.4827C187.15926,328.506,188.27976,333.38123,189.23086,334.871Z" transform="translate(-60.32763 -157.06951)"/><path class="b" d="M152.81706,331.33313c.2362-2.8283,2.9903-5.3083,3.7017-8.5488.4126-1.879,1.7331-4.8934,3.5845-3.5586,1.1198.8073-.0142,3.2855-.1738,4.8964-.3523,3.5556-3.8506,8.0491-4.5732,10.3688-.9783,5.726-2.9007,11.4667-3.7608,11.5348C151.115,346.06383,152.33906,337.05663,152.81706,331.33313Z" transform="translate(-60.32763 -157.06951)"/><path class="b" d="M157.92866,207.29143c-.7364,3.5122,1.8123,8.2017,1.0146,11.5325.0354.6286.58,2.167-.4157,2.3995-1.0905.2545-3.0417-.9089-3.0827-2.3152-.0876-3.0073-1.6435-8.3336-1.1212-10.9699.4219-2.13,1.4414-3.7611,1.5105-7.1451.0737-3.6089,2.144-6.8207,2.7444-6.7276.3042.0471-.8601,3.5253-.3201,7.1671A16.46039,16.46039,0,0,1,157.92866,207.29143Z" transform="translate(-60.32763 -157.06951)"/></svg>
